<?xml version="1.0" encoding="UTF-8"?>
<svg id="Layer_2" data-name="Layer 2" xmlns="http://www.w3.org/2000/svg" viewBox="0 0 125.29 94.65">
  <defs>
    <style>
      .cls-1 {
        fill: #004a7c;
        stroke-width: 0px;
      }
    </style>
  </defs>
  <g id="Grid">
    <path class="cls-1" d="M107.52,19.06c-.56-.66-1.12-1.35-1.71-2.01-4.77-5.43-10.3-9.61-16.65-12.6-6.32-2.96-12.9-4.44-19.68-4.44-5.3,0-10.6.92-15.83,2.8-5.23,1.88-10.14,4.54-14.65,8.03-1.84,1.42-3.55,2.93-5.13,4.54-.16-.07-.33-.13-.49-.2-7.6-2.57-15.53-4.05-23.63-4.38l-9.74-.2,6.65,4.08c5.04,3.13,9.71,6.78,13.92,10.89.82.82,2.07,2.14,3.62,3.88-2.57,5.73-3.82,11.88-3.82,18.5,0,5.63.99,11.06,2.93,16.29,1.97,5.23,4.77,9.87,8.43,13.99,4.64,5.23,10.14,9.28,16.52,12.14,6.35,2.86,13.07,4.28,20.04,4.28s13.89-1.48,20.37-4.41c6.48-2.96,12.11-7.11,16.88-12.51,3.85-4.31,6.81-9.08,8.82-14.32,2.04-5.23,3.06-10.7,3.06-16.32,0-6.98-1.48-13.46-4.48-19.48,2.24-1.32,4.38-2.24,6.29-2.9l6.06-2.3-6.25-1.74c-3.78-1.05-7.64-1.61-11.52-1.61ZM94.45,52.66c.13.92-.53,1.74-1.45,1.88-.89.1-1.74-.56-1.84-1.45-.07-.43.03-.82.26-1.12.23-.39.66-.69,1.18-.76.82-.1,1.55.39,1.74,1.15.07.1.1.2.1.3ZM118.35,22.77c-1.51.53-3.82,1.45-6.38,2.93-3.46,1.97-7.4,4.97-10.76,9.51-.3.39-.56.76-.79,1.15-2.5,3.65-3.85,7.14-4.64,9.77-.1.26-.26.79-.1,1.42.07.16.13.3.16.39.59.26,1.22.53,1.84.82,1.45.72,2.67,1.58,3.72,2.4.59.46,1.09.92,1.55,1.35.56.49,1.12,1.02,1.68,1.58.69.39,1.45.82,2.21,1.42.76.56,1.42,1.15,1.94,1.71.26.26,0,.69-.36.59-1.32-.36-2.96-.63-4.87-.66-.69,0-1.32.03-1.94.07-.26.1-.53.2-.76.36-3.09,1.35-5.04,4.34-6.94,7.77-2.4,4.34-6.32,8.79-10.93,11.58-1.81,1.09-3.72,1.94-5.69,2.37-7.87,1.81-16.19-1.55-21.79-7.04-1.58-1.55-2.99-3.23-4.31-5-2.47-3.29-4.15-5.92-4.87-7.17-4.64-7.8-7.24-12.7-9.74-17.01-1.65-2.86-3.32-5.46-5.5-8.46-2.2-3.03-4.28-5.46-5.89-7.27-1.51-1.68-2.63-2.8-3.13-3.29-5.33-5.23-10.5-8.85-14.28-11.19.63.03,1.28.03,1.91.07,7.73.3,15.24,1.65,22.58,4.15.13.03.3.1.43.13,3.29,1.12,6.35,2.47,9.25,4.01,12.01,6.45,20.5,16.59,26.06,29.78,1.94,4.64,3.88,9.25,5.89,13.86.92,2.11,2.07,4.11,3.65,5.86t.03.07c3.03,3.36,7.73,1.15,10.3-1.61,1.74-1.84,2.96-4.05,4.31-6.19,1.81-2.9,4.15-5.86,7.24-7.44.99-.53,1.12-1.91.23-2.57-5.07-3.92-8.95-4.08-15.07-1.12-.23.1-.46.2-.69.3-3.65,1.81-6.19,2.4-8.16,1.65-1.88-.66-2.86-2.27-3.09-2.63-1.74-2.83-.66-6.29.03-8.33,2.67-8.06,9.68-13.1,11.78-14.58,1.38-.99,5.66-3.82,12.01-5.56,2.6-.72,5.59-1.28,8.89-1.45,1.32-.07,2.57-.07,3.78-.03,3.85.16,7.08.86,9.35,1.51-.03,0-.1.03-.13.03Z"/>
  </g>
</svg>